<svg width="17" height="17" viewBox="0 0 17 17" fill="none" xmlns="http://www.w3.org/2000/svg">
    <path d="M8.25 2.0625C8.34075 2.0625 8.43081 2.0625 8.52019 2.0625C7.63698 2.88317 7.06928 3.98739 6.91576 5.18321C6.76224 6.37904 7.03261 7.59085 7.67988 8.608C8.32715 9.62516 9.31038 10.3833 10.4587 10.7508C11.6069 11.1182 12.8477 11.0716 13.9652 10.6191C13.5353 11.6535 12.8327 12.5517 11.9324 13.2181C11.032 13.8844 9.96768 14.2938 8.85287 14.4027C7.73807 14.5116 6.61462 14.3158 5.60236 13.8362C4.5901 13.3566 3.72701 12.6113 3.10515 11.6797C2.48329 10.748 2.12599 9.66507 2.07136 8.54629C2.01672 7.42752 2.26681 6.31489 2.79494 5.3271C3.32307 4.33932 4.10943 3.51342 5.07015 2.9375C6.03086 2.36159 7.12989 2.05727 8.25 2.057V2.0625Z" stroke="black" stroke-width="1.03125" stroke-linecap="round" stroke-linejoin="round"/>
</svg>
