<svg width="17" height="17" viewBox="0 0 17 17" fill="none" xmlns="http://www.w3.org/2000/svg">
    <path d="M5.5 8.25C5.5 8.97935 5.78973 9.67882 6.30546 10.1945C6.82118 10.7103 7.52065 11 8.25 11C8.97935 11 9.67882 10.7103 10.1945 10.1945C10.7103 9.67882 11 8.97935 11 8.25C11 7.52065 10.7103 6.82118 10.1945 6.30546C9.67882 5.78973 8.97935 5.5 8.25 5.5C7.52065 5.5 6.82118 5.78973 6.30546 6.30546C5.78973 6.82118 5.5 7.52065 5.5 8.25Z" stroke="white" stroke-width="1.03125" stroke-linecap="round" stroke-linejoin="round"/>
    <path d="M2.0625 8.25H2.75M8.25 2.0625V2.75M13.75 8.25H14.4375M8.25 13.75V14.4375M3.85 3.85L4.33125 4.33125M12.65 3.85L12.1688 4.33125M12.1688 12.1688L12.65 12.65M4.33125 12.1688L3.85 12.65" stroke="white" stroke-width="1.03125" stroke-linecap="round" stroke-linejoin="round"/>
</svg>
